# xmcd CD database file
#
# Track frame offsets:
#	150
#	22454
#	46070
#	62336
#	76305
#	93462
#	107816
#	123698
#	143752
#	159746
#	175075
#	190769
#
# Disc length: 2817 seconds
#
# Revision: 0
# Processed by: cddbd v1.5.2PL0 Copyright (c) Steve Scherf et al.
# Submitted via: jetAudio 7
#
DISCID=9f0aff0c
DTITLE=รวมศิลปิน - ตามฮอยอีสาน 
DTITLE=ชุดที่ 2
DYEAR=1900
DGENRE=Country
TTITLE0=ลำเพลินสลับเต้ย
TTITLE1=อีสานบ้านเฮา
TTITLE2=ภูพานสะอื้น
TTITLE3=พี่จ๋าแดงกลับมาแล้ว
TTITLE4=ช้ำรักจากอุบล
TTITLE5=อีสานกู
TTITLE6=ลูกทุ่งคนยาก
TTITLE7=สาวนักเรียนตำตอ
TTITLE8=อส.รอรัก
TTITLE9=หนุ่ม นปข.
TTITLE10=นับวันจะห่างเหิน
TTITLE11=ฮักน้องคนเดียว
EXTD=
EXTT0=
EXTT1=
EXTT2=
EXTT3=
EXTT4=
EXTT5=
EXTT6=
EXTT7=
EXTT8=
EXTT9=
EXTT10=
EXTT11=
PLAYORDER=
